<svg xmlns="http://www.w3.org/2000/svg" width="64" height="64" viewBox="0 0 64 64">
  <defs>
    <linearGradient id="bin" x1="0" y1="0" x2="1" y2="1">
      <stop offset="0" stop-color="#f9fdff" stop-opacity=".98"/>
      <stop offset=".55" stop-color="#e5f4ff" stop-opacity=".94"/>
      <stop offset="1" stop-color="#b8def8" stop-opacity=".98"/>
    </linearGradient>
    <linearGradient id="rim" x1="0" y1="0" x2="0" y2="1">
      <stop stop-color="#91cefa"/>
      <stop offset="1" stop-color="#4d9ddd"/>
    </linearGradient>
  </defs>
  <ellipse cx="32" cy="57" rx="17" ry="3" fill="#263b50" opacity=".13"/>
  <path d="M24 9h16l2 4H22z" fill="#91c9ef" stroke="#68a9d8" stroke-width="1.2"/>
  <path d="M15 14h34v4H15z" rx="2" fill="url(#rim)" stroke="#438fc9" stroke-width="1"/>
  <path d="m19 19 3 33a3 3 0 0 0 3 3h14a3 3 0 0 0 3-3l3-33z" fill="url(#bin)" stroke="#80bde8" stroke-width="1.5"/>
  <path d="m26 23-1 24m7-24v24m7-24 1 24" fill="none" stroke="#abd7f4" stroke-width="2" stroke-linecap="round"/>
  <path d="m32 28 3.3 2-1.7 1-1.6-1v3.1h-2v-3.1l-1.7 1-1.6-1z" fill="#1688d4"/>
  <path d="m25 39 3.8-.1-.2 2-1.7 1 2.7 1.6-1 1.7-2.7-1.6-.1 2-1.7-1z" fill="#1688d4"/>
  <path d="m39 39-1.1 3.6-1.8-.9-.4-1.9-2.7 1.6-1-1.7 2.7-1.6-1.7-1 .2-2z" fill="#1688d4"/>
  <path d="M20 21h24" stroke="#fff" stroke-width="1.5" opacity=".85"/>
</svg>
